<?xml version="1.0" encoding="UTF-8" standalone="no"?>
<svg
   version="1.1"
   viewBox="0,0,2080,2080"
   id="svg4393"
   sodipodi:docname="Noto_Emoji.Printer favicon.svg"
   inkscape:version="1.2 (dc2aedaf03, 2022-05-15)"
   inkscape:export-filename="Noto_Emoji.Printer favicon.png"
   inkscape:export-xdpi="11.815385"
   inkscape:export-ydpi="11.815385"
   xmlns:inkscape="http://www.inkscape.org/namespaces/inkscape"
   xmlns:sodipodi="http://sodipodi.sourceforge.net/DTD/sodipodi-0.dtd"
   xmlns="http://www.w3.org/2000/svg"
   xmlns:svg="http://www.w3.org/2000/svg">
  <defs
     id="defs4397" />
  <sodipodi:namedview
     id="namedview4395"
     pagecolor="#ffffff"
     bordercolor="#000000"
     borderopacity="0.25"
     inkscape:showpageshadow="2"
     inkscape:pageopacity="0.0"
     inkscape:pagecheckerboard="0"
     inkscape:deskcolor="#d1d1d1"
     showgrid="false"
     inkscape:zoom="0.1767767"
     inkscape:cx="-1018.2337"
     inkscape:cy="1538.6643"
     inkscape:window-width="1920"
     inkscape:window-height="1017"
     inkscape:window-x="-8"
     inkscape:window-y="824"
     inkscape:window-maximized="1"
     inkscape:current-layer="svg4393" />
  <rect
     style="fill:#eaeaea;fill-opacity:1;stroke-width:0"
     id="rect1011"
     width="2080"
     height="2080"
     x="0"
     y="0"
     ry="509.11688"
     rx="0" />
  <g
     id="g4391"
     transform="matrix(0.79286695,0,0,0.7890551,9.2729789,487.66143)"
     style="fill:#7765e3;fill-opacity:1"
     inkscape:export-filename="g4391.png"
     inkscape:export-xdpi="96"
     inkscape:export-ydpi="96">
    <path
       d="m 265,1324 c 0,52 18.5,96.5 55.5,133.5 37,37 81.5,55.5 133.5,55.5 h 71 l -69,227 h 1688 l -69,-227 h 71 c 52,0 96.5,-18.5 133.5,-55.5 37,-37 55.5,-81.5 55.5,-133.5 V 802 c 0,-14 -1.5,-28.66667 -4.5,-44 -3,-15.33333 -6.8333,-30.66667 -11.5,-46 L 2194,291 c -14,-47.33333 -37.6667,-84.66667 -71,-112 -33.3333,-27.33333 -71,-41 -113,-41 h -78 l -57,-187 c -10.6667,-35.333333 -20.1667,-61.33333 -28.5,-78 -8.3333,-16.66667 -18.5,-27.66667 -30.5,-33 -12,-5.33333 -28.6667,-8 -50,-8 h -25 c -4,-35.33333 -8.1667,-67.16667 -12.5,-95.5 -4.3333,-28.33333 -9.1667,-53.83333 -14.5,-76.5 H 779 c 6,22.66667 11.5,49 16.5,79 5,30 9.16667,61.66667 12.5,95 -14,2 -25.5,6.33333 -34.5,13 -9,6.66667 -17,17.83333 -24,33.5 -7,15.66667 -15.16667,39.166667 -24.5,70.5 l -57,187 h -78 c -42,0 -79.66667,13.66667 -113,41 -33.33333,27.33333 -57,64.66667 -71,112 L 281,712 c -4.66667,15.33333 -8.5,30.66667 -11.5,46 -3,15.33333 -4.5,30 -4.5,44 z m 80,-485 c 0,-21.33333 7.33333,-39.16667 22,-53.5 14.66667,-14.33333 32.33333,-21.5 53,-21.5 h 233 v 91 c 0,43.33333 15.33333,80.33333 46,111 30.66667,30.66667 67.66667,46 111,46 h 344 c 4,12.6667 11.3333,23.3333 22,32 10.6667,8.6667 23.3333,13 38,13 h 172 c 14.6667,0 27.3333,-4.3333 38,-13 10.6667,-8.6667 18,-19.3333 22,-32 h 344 c 43.3333,0 80.3333,-15.33333 111,-46 30.6667,-30.66667 46,-67.66667 46,-111 v -91 h 233 c 21.3333,0 39.1667,7.16667 53.5,21.5 14.3333,14.33333 21.5,32.16667 21.5,53.5 v 485 c 0,30 -10.6667,55.6667 -32,77 -21.3333,21.3333 -47,32 -77,32 h -95 l -92,-304 H 641 l -92,304 h -95 c -30,0 -55.66667,-10.6667 -77,-32 -21.33333,-21.3333 -32,-47 -32,-77 z M 482,315 c 9.33333,-30.66667 23.66667,-54.5 43,-71.5 19.33333,-17 41,-25.5 65,-25.5 H 799 L 664,684 H 420 c -10.66667,0 -19.5,0.5 -26.5,1.5 -7,1 -14.83333,3.16667 -23.5,6.5 z m 219,894 h 1198 l 137,451 H 564 Z m 32,-445 h 1134 v 91 c 0,21.33333 -7.5,39.5 -22.5,54.5 -15,15 -33.1667,22.5 -54.5,22.5 h -344 c -2.6667,-13.33333 -9.5,-24.5 -20.5,-33.5 -11,-9 -24.1667,-13.5 -39.5,-13.5 h -172 c -14.6667,0 -27.5,4.5 -38.5,13.5 -11,9 -18.1667,20.16667 -21.5,33.5 H 810 c -21.33333,0 -39.5,-7.5 -54.5,-22.5 C 740.5,894.5 733,876.33333 733,855 Z M 882,218 h 836 l 135,466 H 747 Z m 767,-478 c 8.6667,50 16,108 22,174 6,66 9,140.666667 9,224 H 908 c 0,-79.333333 -2.66667,-151.5 -8,-216.5 -5.33333,-65 -12.66667,-125.5 -22,-181.5 z m 361,478 c 24,0 45.8333,8.5 65.5,25.5 19.6667,17 33.8333,40.83333 42.5,71.5 l 112,377 c -8.6667,-3.33333 -16.3333,-5.5 -23,-6.5 -6.6667,-1 -15.6667,-1.5 -27,-1.5 H 1936 L 1801,218 Z m 56,797 c 14.6667,0 27,-4.8333 37,-14.5 10,-9.66667 15,-21.83333 15,-36.5 0,-14.66667 -5,-27 -15,-37 -10,-10 -22.3333,-15 -37,-15 -14.6667,0 -26.8333,5 -36.5,15 -9.6667,10 -14.5,22.33333 -14.5,37 0,14.66667 4.8333,26.83333 14.5,36.5 9.6667,9.6667 21.8333,14.5 36.5,14.5 z m -276,518 -13,-51 H 823 l -13,51 z m -32,-162 -13,-51 H 855 l -13,51 z"
       id="path4389"
       style="fill:#7765e3;fill-opacity:1"
       sodipodi:nodetypes="sssccccsssssccssccssscsccscssccssccsssssscssscsssscssscssssssccccsssscssccsscccccccccssscsssscssscccccccsccsccssccssccsssssssssscccccccccc" />
  </g>
</svg>
