<svg version="1.1" xmlns="http://www.w3.org/2000/svg" xmlns:xlink="http://www.w3.org/1999/xlink" viewBox="0,0,2080,2080">
	<g>
		<path d="M0,0M265,1324 C265,1376,283.5,1420.5,320.5,1457.5 C357.5,1494.5,402,1513,454,1513 C454,1513,525,1513,525,1513 C525,1513,456,1740,456,1740 C456,1740,2144,1740,2144,1740 C2144,1740,2075,1513,2075,1513 C2075,1513,2146,1513,2146,1513 C2198,1513,2242.5,1494.5,2279.5,1457.5 C2316.5,1420.5,2335,1376,2335,1324 C2335,1324,2335,802,2335,802 C2335,788,2333.5,773.33333333,2330.5,758 C2327.5,742.66666667,2323.66666667,727.33333333,2319,712 C2319,712,2194,291,2194,291 C2180,243.66666667,2156.33333333,206.33333333,2123,179 C2089.66666667,151.66666667,2052,138,2010,138 C2010,138,1932,138,1932,138 C1932,138,1875,-49,1875,-49 C1864.33333333,-84.33333333,1854.83333333,-110.33333333,1846.5,-127 C1838.16666667,-143.66666667,1828,-154.66666667,1816,-160 C1804,-165.33333333,1787.33333333,-168,1766,-168 C1766,-168,1741,-168,1741,-168 C1737,-203.33333333,1732.83333333,-235.16666667,1728.5,-263.5 C1724.16666667,-291.83333333,1719.33333333,-317.33333333,1714,-340 C1714,-340,779,-340,779,-340 C785,-317.33333333,790.5,-291,795.5,-261 C800.5,-231,804.66666667,-199.33333333,808,-166 C794,-164,782.5,-159.66666667,773.5,-153 C764.5,-146.33333333,756.5,-135.16666667,749.5,-119.5 C742.5,-103.83333333,734.33333333,-80.33333333,725,-49 C725,-49,668,138,668,138 C668,138,590,138,590,138 C548,138,510.33333333,151.66666667,477,179 C443.66666667,206.33333333,420,243.66666667,406,291 C406,291,281,712,281,712 C276.33333333,727.33333333,272.5,742.66666667,269.5,758 C266.5,773.33333333,265,788,265,802 C265,802,265,1324,265,1324Z M345,839 C345,817.66666667,352.33333333,799.83333333,367,785.5 C381.66666667,771.16666667,399.33333333,764,420,764 C420,764,653,764,653,764 C653,764,653,855,653,855 C653,898.33333333,668.33333333,935.33333333,699,966 C729.66666667,996.66666667,766.66666667,1012,810,1012 C810,1012,1154,1012,1154,1012 C1158,1024.66666667,1165.33333333,1035.33333333,1176,1044 C1186.66666667,1052.66666667,1199.33333333,1057,1214,1057 C1214,1057,1386,1057,1386,1057 C1400.66666667,1057,1413.33333333,1052.66666667,1424,1044 C1434.66666667,1035.33333333,1442,1024.66666667,1446,1012 C1446,1012,1790,1012,1790,1012 C1833.33333333,1012,1870.33333333,996.66666667,1901,966 C1931.66666667,935.33333333,1947,898.33333333,1947,855 C1947,855,1947,764,1947,764 C1947,764,2180,764,2180,764 C2201.33333333,764,2219.16666667,771.16666667,2233.5,785.5 C2247.83333333,799.83333333,2255,817.66666667,2255,839 C2255,839,2255,1324,2255,1324 C2255,1354,2244.33333333,1379.66666667,2223,1401 C2201.66666667,1422.33333333,2176,1433,2146,1433 C2146,1433,2051,1433,2051,1433 C2051,1433,1959,1129,1959,1129 C1959,1129,641,1129,641,1129 C641,1129,549,1433,549,1433 C549,1433,454,1433,454,1433 C424,1433,398.33333333,1422.33333333,377,1401 C355.66666667,1379.66666667,345,1354,345,1324 C345,1324,345,839,345,839Z M482,315 C491.33333333,284.33333333,505.66666667,260.5,525,243.5 C544.33333333,226.5,566,218,590,218 C590,218,799,218,799,218 C799,218,664,684,664,684 C664,684,420,684,420,684 C409.33333333,684,400.5,684.5,393.5,685.5 C386.5,686.5,378.66666667,688.66666667,370,692 C370,692,482,315,482,315Z M701,1209 C701,1209,1899,1209,1899,1209 C1899,1209,2036,1660,2036,1660 C2036,1660,564,1660,564,1660 C564,1660,701,1209,701,1209Z M733,764 C733,764,1867,764,1867,764 C1867,764,1867,855,1867,855 C1867,876.33333333,1859.5,894.5,1844.5,909.5 C1829.5,924.5,1811.33333333,932,1790,932 C1790,932,1446,932,1446,932 C1443.33333333,918.66666667,1436.5,907.5,1425.5,898.5 C1414.5,889.5,1401.33333333,885,1386,885 C1386,885,1214,885,1214,885 C1199.33333333,885,1186.5,889.5,1175.5,898.5 C1164.5,907.5,1157.33333333,918.66666667,1154,932 C1154,932,810,932,810,932 C788.66666667,932,770.5,924.5,755.5,909.5 C740.5,894.5,733,876.33333333,733,855 C733,855,733,764,733,764Z M882,218 C882,218,1718,218,1718,218 C1718,218,1853,684,1853,684 C1853,684,747,684,747,684 C747,684,882,218,882,218Z M1649,-260 C1657.66666667,-210,1665,-152,1671,-86 C1677,-20,1680,54.66666667,1680,138 C1680,138,908,138,908,138 C908,58.66666667,905.33333333,-13.5,900,-78.5 C894.66666667,-143.5,887.33333333,-204,878,-260 C878,-260,1649,-260,1649,-260Z M2010,218 C2034,218,2055.83333333,226.5,2075.5,243.5 C2095.16666667,260.5,2109.33333333,284.33333333,2118,315 C2118,315,2230,692,2230,692 C2221.33333333,688.66666667,2213.66666667,686.5,2207,685.5 C2200.33333333,684.5,2191.33333333,684,2180,684 C2180,684,1936,684,1936,684 C1936,684,1801,218,1801,218 C1801,218,2010,218,2010,218Z M2066,1015 C2080.66666667,1015,2093,1010.16666667,2103,1000.5 C2113,990.83333333,2118,978.66666667,2118,964 C2118,949.33333333,2113,937,2103,927 C2093,917,2080.66666667,912,2066,912 C2051.33333333,912,2039.16666667,917,2029.5,927 C2019.83333333,937,2015,949.33333333,2015,964 C2015,978.66666667,2019.83333333,990.83333333,2029.5,1000.5 C2039.16666667,1010.16666667,2051.33333333,1015,2066,1015Z M1790,1533 C1790,1533,1777,1482,1777,1482 C1777,1482,823,1482,823,1482 C823,1482,810,1533,810,1533 C810,1533,1790,1533,1790,1533Z M1758,1371 C1758,1371,1745,1320,1745,1320 C1745,1320,855,1320,855,1320 C855,1320,842,1371,842,1371 C842,1371,1758,1371,1758,1371Z "/>
	</g>
</svg>